<?xml version="1.0" encoding="UTF-8" standalone="no" ?>
<!DOCTYPE svg PUBLIC "-//W3C//DTD SVG 1.1//EN" "http://www.w3.org/Graphics/SVG/1.1/DTD/svg11.dtd">
<svg xmlns="http://www.w3.org/2000/svg" xmlns:xlink="http://www.w3.org/1999/xlink" version="1.1" width="100" height="100" viewBox="0 0 100 100" xml:space="preserve">
<desc>Created with Fabric.js 4.2.0</desc>
<defs>
</defs>
<rect x="0" y="0" width="100%" height="100%" fill="transparent"></rect>
<g transform="matrix(Infinity NaN NaN Infinity 0 0)" id="c1d99dc7-8228-4ac6-aba8-ee17cd1f2c20"  >
</g>
<g transform="matrix(1 0 0 1 50 50)" id="563329c5-9ef8-43d2-82fb-838c13892be4"  >
<rect style="stroke: none; stroke-width: 1; stroke-dasharray: none; stroke-linecap: butt; stroke-dashoffset: 0; stroke-linejoin: miter; stroke-miterlimit: 4; fill: rgb(255,255,255); fill-rule: nonzero; opacity: 1;" vector-effect="non-scaling-stroke"  x="-50" y="-50" rx="0" ry="0" width="100" height="100" />
</g>
<g transform="matrix(0.86 0 0 0.86 50 50)" id="36b33497-983b-4fc1-87db-1cd207fe3ed2"  >
<path style="stroke: rgb(0,0,0); stroke-width: 0; stroke-dasharray: none; stroke-linecap: butt; stroke-dashoffset: 0; stroke-linejoin: miter; stroke-miterlimit: 4; fill: rgb(63,76,234); fill-rule: nonzero; opacity: 1;" vector-effect="non-scaling-stroke"  transform=" translate(-25, -24.17)" d="M 17.4375 7.320312 C 17.273438 7.324219 17.105469 7.34375 16.941406 7.375 C 14.832031 7.789062 12.660156 8.511719 10.464844 9.394531 C 9.332031 9.847656 8.367188 10.632812 7.695312 11.652344 C 2.628906 19.300781 1.203125 27.226562 2.042969 35.167969 C 2.074219 35.472656 2.242188 35.746094 2.503906 35.910156 C 5.667969 37.90625 8.933594 39.648438 12.394531 40.84375 C 13.699219 41.296875 15.152344 40.773438 15.910156 39.613281 L 17.5625 37.085938 C 18.273438 37.28125 19 37.449219 19.742188 37.601562 C 21.425781 38.015625 23.175781 38.246094 24.976562 38.246094 C 26.828125 38.246094 28.628906 38.003906 30.355469 37.566406 C 31.035156 37.421875 31.703125 37.265625 32.359375 37.082031 L 34.085938 39.65625 C 34.847656 40.792969 36.289062 41.296875 37.578125 40.851562 C 41.042969 39.65625 44.320312 37.910156 47.492188 35.910156 C 47.75 35.746094 47.921875 35.472656 47.953125 35.167969 C 48.789062 27.226562 47.363281 19.300781 42.300781 11.652344 C 42.300781 11.652344 42.300781 11.648438 42.300781 11.648438 L 42.296875 11.644531 L 42.296875 11.648438 C 41.621094 10.628906 40.65625 9.84375 39.527344 9.394531 C 37.328125 8.511719 35.160156 7.789062 33.054688 7.375 C 31.726562 7.117188 30.390625 7.796875 29.773438 9 L 29.589844 9.359375 C 28.320312 9.214844 26.953125 9.097656 24.996094 9.144531 C 23.039062 9.097656 21.671875 9.214844 20.40625 9.359375 L 20.222656 9 C 19.679688 7.945312 18.589844 7.292969 17.4375 7.320312 Z M 17.652344 9.324219 C 17.976562 9.367188 18.265625 9.570312 18.441406 9.914062 L 18.917969 10.839844 C 19.113281 11.21875 19.523438 11.433594 19.945312 11.375 C 21.234375 11.195312 22.777344 11.085938 24.972656 11.144531 C 24.988281 11.144531 25.003906 11.144531 25.019531 11.144531 C 27.214844 11.085938 28.761719 11.199219 30.050781 11.375 C 30.472656 11.433594 30.882812 11.21875 31.074219 10.839844 L 31.550781 9.914062 C 31.785156 9.460938 32.226562 9.25 32.667969 9.335938 C 34.597656 9.714844 36.65625 10.394531 38.78125 11.246094 C 39.539062 11.550781 40.179688 12.070312 40.628906 12.75 C 40.628906 12.75 40.628906 12.75 40.632812 12.753906 L 40.636719 12.757812 C 45.339844 19.867188 46.671875 27.070312 45.980469 34.472656 C 43.03125 36.300781 40.035156 37.886719 36.925781 38.960938 C 36.488281 39.113281 36.03125 38.964844 35.75 38.542969 L 34.183594 36.210938 C 34.769531 35.9375 35.347656 35.648438 35.910156 35.332031 C 36.234375 35.160156 36.441406 34.828125 36.445312 34.460938 C 36.453125 34.09375 36.257812 33.753906 35.941406 33.574219 C 35.621094 33.394531 35.230469 33.402344 34.917969 33.59375 C 33.183594 34.582031 31.308594 35.3125 29.332031 35.753906 C 27.9375 36.003906 26.488281 36.164062 24.964844 36.195312 C 23.503906 36.164062 22.097656 36.015625 20.742188 35.785156 C 18.722656 35.34375 16.804688 34.605469 15.035156 33.59375 C 14.890625 33.507812 14.726562 33.460938 14.558594 33.457031 C 14.097656 33.441406 13.683594 33.742188 13.5625 34.191406 C 13.441406 34.636719 13.636719 35.105469 14.042969 35.332031 C 14.597656 35.644531 15.167969 35.929688 15.75 36.199219 L 14.234375 38.519531 C 13.953125 38.949219 13.488281 39.105469 13.046875 38.953125 C 9.945312 37.878906 6.957031 36.300781 4.011719 34.472656 C 3.324219 27.070312 4.65625 19.867188 9.363281 12.753906 C 9.816406 12.070312 10.449219 11.554688 11.207031 11.25 C 13.335938 10.398438 15.394531 9.714844 17.328125 9.339844 C 17.4375 9.316406 17.546875 9.3125 17.65625 9.328125 Z M 31.601562 19.910156 C 29.695312 19.910156 28.121094 21.953125 28.121094 24.433594 C 28.121094 26.917969 29.695312 28.957031 31.601562 28.957031 C 33.507812 28.957031 35.078125 26.917969 35.078125 24.433594 C 35.078125 21.953125 33.507812 19.910156 31.601562 19.910156 Z M 18.605469 19.992188 C 16.679688 19.992188 15.097656 22.023438 15.097656 24.488281 C 15.097656 26.953125 16.679688 28.984375 18.605469 28.984375 C 20.535156 28.984375 22.117188 26.953125 22.117188 24.488281 C 22.117188 22.023438 20.535156 19.992188 18.605469 19.992188 Z M 18.605469 19.992188" stroke-linecap="round" />
</g>
</svg>